<svg width="545" height="558" viewBox="0 0 545 558" fill="none" xmlns="http://www.w3.org/2000/svg">
<path d="M391.246 41.3545C430.56 55.0832 477.362 66.3157 484.85 94.3971C492.339 123.103 460.513 168.657 454.273 211.715C448.656 254.149 468.625 292.839 458.017 315.304C446.784 337.769 404.974 343.386 371.277 372.715C336.955 402.669 311.37 456.335 273.304 478.176C234.614 500.642 183.443 490.657 159.106 455.087C134.769 420.141 137.265 359.61 129.152 315.304C121.04 270.998 102.319 242.917 94.8307 210.467C87.3423 178.017 90.4625 141.199 104.191 106.254C117.296 71.308 141.009 38.2343 172.835 19.5134C205.284 0.792456 245.222 -3.57577 282.04 2.66455C318.858 9.52889 351.308 27.0018 391.246 41.3545Z" fill="url(#paint0_linear)"/>
<path d="M191.259 81.7588C191.259 81.7588 198.339 82.3171 198.948 92.112C199.557 101.907 199.608 130.327 186.311 132.078C173.014 133.829 182.581 85.3875 182.581 85.3875L191.259 81.7588Z" fill="#1C2226"/>
<path d="M145.076 90.5387C145.076 90.5387 139.696 105.536 150.43 108.276C161.189 111.017 159.185 89.27 159.185 89.27L145.076 90.5387Z" fill="#1C2226"/>
<path d="M206.231 184.732L239.498 231.626L237.646 227.236L252.998 296.055L270.101 292.857L259.519 223.151C259.291 221.628 258.707 220.258 257.895 219.091L257.667 218.761L224.4 171.867L206.231 184.732Z" fill="#FCC9A7"/>
<path d="M265.736 317.167C274.491 314.553 279.439 305.317 276.825 296.587C274.212 287.833 264.975 282.885 256.246 285.498C247.491 288.112 242.543 297.349 245.157 306.078C247.77 314.807 256.982 319.781 265.736 317.167Z" fill="#FCC9A7"/>
<path d="M134.215 183.134L113.179 247.435L124.471 239.772L55.9573 237.919L54.8661 255.302L123.075 262.026C128.15 262.534 132.718 259.387 134.241 254.743L134.367 254.363L155.404 190.061L134.215 183.134Z" fill="#FCC9A7"/>
<path d="M137.945 512.025L127.643 540.42L112.57 526.87L122.187 504.108L137.945 512.025Z" fill="#FCC9A7"/>
<path d="M133.606 533.848C133.606 532.452 132.414 531.539 131.221 532.046C128.886 533.036 125.004 533.899 120.411 531.844C115.615 529.687 114.727 526.159 114.727 523.825C114.727 522.607 113.864 521.693 112.748 521.846L77.6533 526.895C75.5218 527.2 73.5171 528.443 72.0961 530.346C70.7512 532.123 71.3855 534.736 73.2633 535.295L125.664 551.23C127.719 551.865 129.952 550.368 130.561 547.982L133.53 536.259C133.581 536.056 133.606 535.853 133.606 535.675V533.848Z" fill="#1F252A"/>
<path d="M274.973 492.74L286.392 515.096L273.095 526.464L258.733 499.642L274.973 492.74Z" fill="#FCC9A7"/>
<path d="M288.777 510.173C287.711 509.285 286.24 509.589 285.859 510.833C285.098 513.269 283.271 516.77 278.703 518.953C273.958 521.211 270.685 519.587 268.908 518.09C267.969 517.303 266.701 517.379 266.117 518.318L247.238 548.338C246.096 550.165 245.74 552.474 246.273 554.783C246.755 556.965 249.141 558.158 250.816 557.092L296.897 527.454C298.699 526.286 299.029 523.622 297.608 521.617L290.579 511.772C290.452 511.619 290.325 511.467 290.173 511.34L288.777 510.173Z" fill="#1F252A"/>
<path d="M149.593 283.037L194.66 408.062L258.454 513.776L286.899 499.718L230.185 394.334L199.075 288.924L149.593 283.037Z" fill="#092330"/>
<path d="M219.223 284.889C219.223 284.889 227.749 301.003 214.503 326.759L173.37 405.245L142.031 524.205L110.895 513.345L140.686 393.04L172.887 299.176L149.567 283.062L219.223 284.889Z" fill="#0C2C40"/>
<path d="M180.424 145.984L215.518 153.191C219.654 154.028 223.309 156.413 225.77 159.839L248.1 190.949L218.259 210.463L229.018 295.649C229.018 295.649 216.863 332.849 142.716 303.185C142.716 303.185 149.111 232.591 144.822 186.61L147.005 156.337L180.424 145.984Z" fill="#DF945B"/>
<path d="M146.979 156.312L141.143 158.443C136.321 160.194 132.566 164.077 130.967 168.974L118.812 206.048L154.541 212.645L146.979 156.312Z" fill="#DF945B"/>
<path d="M33.1701 241.65C33.1701 250.785 40.5798 258.194 49.7149 258.194C58.8501 258.194 66.2344 250.785 66.2344 241.65C66.2344 232.514 58.8247 225.13 49.7149 225.13C40.5798 225.13 33.1701 232.514 33.1701 241.65Z" fill="#FCC9A7"/>
<path d="M170.502 156.718L174.486 158.926C182.226 158.291 189.508 156.642 188.874 148.902L187.021 126.217L158.982 128.526L160.834 151.211C161.468 158.951 162.763 157.352 170.502 156.718Z" fill="#FCC9A7"/>
<path d="M187.402 128.957C187.402 128.957 183.545 145.756 169.436 145.172C157.104 144.639 158.271 126.217 158.271 126.217L187.402 128.957Z" fill="#F4BE9A"/>
<path d="M171.847 139.209L174.232 138.955C186.159 137.661 194.786 126.952 193.518 115.001L192.046 101.399C190.752 89.4729 180.043 80.8453 168.091 82.114L165.706 82.3678C153.78 83.6619 145.152 94.3704 146.421 106.322L147.893 119.923C149.187 131.85 159.895 140.478 171.847 139.209Z" fill="#FCC9A7"/>
<path d="M216.203 204.525L207.17 193.868" stroke="#CE804A" stroke-width="0.7693" stroke-miterlimit="10" stroke-linecap="round" stroke-linejoin="round"/>
<path d="M146.167 211.098L144.797 189.097" stroke="#CE804A" stroke-width="0.7693" stroke-miterlimit="10" stroke-linecap="round" stroke-linejoin="round"/>
<path d="M170.502 156.718L188.316 145.959C195.928 142.787 200.775 150.146 200.775 150.146L179.561 170.954L170.502 156.718Z" fill="#EDA472"/>
<path d="M170.502 156.718L161.875 170.065L153.247 154.358C153.247 154.358 156.647 149.004 161.291 150.247L170.502 156.718Z" fill="#EDA472"/>
<path d="M124.014 242.335H16.1939C14.3922 242.335 12.9459 240.888 12.9459 239.087C12.9459 237.285 14.3922 235.839 16.1939 235.839H124.014C125.816 235.839 127.262 237.285 127.262 239.087C127.262 240.863 125.816 242.335 124.014 242.335Z" fill="#D1D1D1"/>
<path d="M12.9459 238.249L0.0551224 175.623C-0.274757 174.075 0.917969 172.603 2.51662 172.603H68.1121C69.3048 172.603 70.3451 173.44 70.5735 174.633L83.2866 238.275H12.9459V238.249Z" fill="#D1D1D1"/>
<path d="M7.33787 177.374L19.3658 234.189H78.8459L66.818 177.374H7.33787Z" fill="#EFEFEF"/>
<path d="M190.625 111.753H183.342L181.921 103.759C181.921 103.759 174.309 99.6739 175.78 91.7821C175.78 91.7821 143.731 103.277 138.732 90.4879C132.135 73.6132 156.064 69.4263 175.78 69.9085C195.497 70.3652 194.076 95.5377 194.076 95.5377L190.625 111.753Z" fill="#1C2226"/>
<path d="M186.362 110.154C186.819 114.417 190.65 117.488 194.913 117.031C199.176 116.574 202.247 112.742 201.79 108.479C201.333 104.216 197.502 101.146 193.239 101.602C188.976 102.059 185.905 105.891 186.362 110.154Z" fill="#FCC9A7"/>
<path d="M316.188 351.779H394.167V475.51H316.188V351.779Z" fill="#B2B2B2"/>
<path d="M393.862 351.779H471.841V475.51H393.862V351.779Z" fill="#D1D1D1"/>
<path d="M434.717 201.734L438.041 268.243L453.672 317.015H425.531L410.914 274.993L406.347 227.237L434.717 201.734Z" fill="#F7EBE7"/>
<path d="M435.503 434.199L429.844 460.564L448.851 462.822L454.256 436.863L435.503 434.199Z" fill="#FCC9A7"/>
<path d="M428.703 458.179C429.185 456.758 430.707 456.25 431.748 457.164C433.778 458.965 437.432 461.173 442.837 460.64C448.445 460.082 450.551 456.783 451.363 454.398C451.794 453.154 452.987 452.52 454.053 453.053L488.081 470.156C490.137 471.196 491.761 473.125 492.573 475.536C493.334 477.794 491.811 480.23 489.68 480.179L430.885 478.555C428.576 478.504 426.799 476.221 427.002 473.582L427.967 460.64C427.992 460.437 428.017 460.209 428.094 460.006L428.703 458.179Z" fill="#1F252A"/>
<path d="M435.833 306.713H479.961C479.961 306.713 506.834 305.215 508.432 327.267C510.031 349.318 469.024 412.401 462.604 446.1L425.708 443.055L452.276 351.424L386.199 351.805C381.301 351.83 376.429 351.12 371.811 349.521C358.945 345.055 339.305 338.66 350.013 303.236L435.833 306.713Z" fill="#092330"/>
<path d="M401.779 434.3L392.796 465.817L411.803 468.075L420.532 436.965L401.779 434.3Z" fill="#FCC9A7"/>
<path d="M391.654 463.431C392.137 462.01 393.659 461.503 394.699 462.416C396.729 464.218 400.383 466.426 405.788 465.893C411.396 465.335 413.503 462.036 414.315 459.651C414.746 458.407 415.939 457.773 417.005 458.306L451.033 475.409C453.088 476.449 454.712 478.378 455.524 480.788C456.286 483.047 454.763 485.483 452.632 485.432L392.822 483.808C390.512 483.757 388.736 481.473 388.939 478.834L390.944 465.893C390.969 465.69 390.995 465.462 391.071 465.259L391.654 463.431Z" fill="#1F252A"/>
<path d="M383.103 175.598C382.113 176.562 337.833 187.854 337.833 187.854L347.298 213.001L395.714 209.347L383.103 175.598Z" fill="#F7EBE7"/>
<path d="M401.373 181.662C401.373 181.662 430.225 192.193 434.717 201.734C433.169 215.209 428.423 228.176 420.608 239.265C411.016 252.866 399.165 276.237 401.348 306.713H317.939C317.939 306.713 322.43 220.969 347.12 188.057L401.373 181.662Z" fill="#F7EBE7"/>
<path d="M391.908 195.264C383.712 193.589 378.434 185.595 380.108 177.399L385.006 153.419L414.67 159.484L409.772 183.464C408.098 191.66 400.104 196.938 391.908 195.264Z" fill="#FCC9A7"/>
<path d="M382.976 161.793C382.976 161.793 386.097 181.231 401.221 182.398C414.467 183.413 413.198 164.255 413.198 164.255L382.976 161.793Z" fill="#F4BE9A"/>
<path d="M400.028 171.74L397.415 171.131C384.295 168.086 376.125 154.993 379.17 141.899L382.621 126.953C385.666 113.834 398.759 105.663 411.853 108.708L414.467 109.317C427.586 112.362 435.757 125.456 432.712 138.549L429.261 153.495C426.216 166.615 413.122 174.785 400.028 171.74Z" fill="#FCC9A7"/>
<path d="M387.391 148.116C388 149.156 388.584 150.73 388.787 153.115C389.015 156.135 390.538 159.002 393.076 160.677C400.358 165.498 405.915 153.292 416.675 155.449C416.675 155.449 420.887 156.084 421.724 160.778C422.562 165.447 428.424 157.276 429.718 151.694C431.012 146.111 431.671 179.328 405.18 176.511C405.18 176.511 391.807 176.08 382.798 162.453C381.809 160.956 381.225 159.205 381.174 157.403C381.098 154.739 381.479 150.704 384.016 147.811C384.905 146.746 386.681 146.898 387.391 148.116Z" fill="#1C2226"/>
<path d="M387.366 140.579C387.366 140.579 398.81 136.798 396.882 120.076C396.882 120.076 425.302 146.974 446.364 127.232C446.364 127.232 436.95 124.72 433.067 118.274C425.987 106.526 405.636 90.336 389.345 109.063C389.345 109.063 369.527 105.993 375.211 136.519L387.366 140.579Z" fill="#1C2226"/>
<path d="M387.366 140.579C386.275 145.248 381.606 148.167 376.937 147.101C372.242 146.01 369.349 141.341 370.415 136.672C371.506 132.002 376.175 129.084 380.845 130.15C385.539 131.241 388.457 135.91 387.366 140.579Z" fill="#FCC9A7"/>
<path d="M401.83 194.325L389.574 194.553L398.151 212.316L407.413 195.289L401.83 194.325Z" fill="#0C2C40"/>
<path d="M379.068 176.384L394.852 194.807L384.575 206.606L365.67 180.622C365.67 180.622 370.517 172.832 379.068 176.384Z" fill="#FFF7F3"/>
<path d="M401.83 194.325L410.914 204.576L417.309 188.59C417.309 188.59 415.634 181.409 410.407 182.779L401.83 194.325Z" fill="#FFF7F3"/>
<path d="M398.481 206.581C398.481 206.581 410.331 237.488 407.387 281.337L395.715 291.995L382.088 278.876L396.78 204.576L398.481 206.581Z" fill="#0C2C40"/>
<path d="M376.328 279.967L401.703 288.315L403.378 303.211L369.73 293.162L376.328 279.967Z" fill="#FCC9A7"/>
<path d="M397.922 298.161C397.922 306.865 404.977 313.945 413.706 313.945C422.409 313.945 429.489 306.89 429.489 298.161C429.489 289.457 422.435 282.378 413.706 282.378C405.002 282.378 397.922 289.432 397.922 298.161Z" fill="#FCC9A7"/>
<path d="M401.373 306.713H445.476C445.476 306.713 472.348 305.215 473.947 327.267C475.546 349.318 431.519 416.461 425.099 450.135L388.203 447.09L417.791 351.399L351.713 351.779C346.816 351.805 341.944 351.094 337.325 349.496C324.46 345.03 304.82 338.635 315.528 303.211L401.373 306.713Z" fill="#0C2C40"/>
<path d="M534.417 228.734H458.163C455.651 228.734 453.494 230.485 452.962 232.946L438.599 300.293C437.889 303.591 440.426 306.713 443.801 306.713H521.323C523.861 306.713 526.043 304.911 526.525 302.424L539.619 235.078C540.278 231.779 537.766 228.734 534.417 228.734Z" fill="#B2B2B2"/>
<path d="M538.807 228.734H462.579C460.067 228.734 457.91 230.485 457.377 232.946L443.014 300.293C442.304 303.591 444.816 306.713 448.216 306.713H525.713C528.251 306.713 530.433 304.911 530.915 302.424L544.009 235.078C544.668 231.779 542.156 228.734 538.807 228.734Z" fill="#D1D1D1"/>
<path d="M440.68 300.952H388.584C386.985 300.952 385.716 302.246 385.716 303.82C385.716 305.418 387.011 306.687 388.584 306.687H441.695L440.68 300.952Z" fill="#B2B2B2"/>
<path d="M491.608 265.96C491.608 270.553 495.313 274.257 499.906 274.257C504.499 274.257 508.204 270.527 508.204 265.96C508.204 261.367 504.474 257.662 499.906 257.662C495.313 257.662 491.608 261.367 491.608 265.96Z" fill="white"/>
<path d="M356.027 211.808L328.165 256.799L394.852 280.601L385.717 300.343C385.717 300.343 328.698 293.949 301.14 272.709C298.603 270.756 297.334 267.584 297.765 264.412C299.059 254.262 304.591 229.622 328.165 194.604C332.961 187.473 342.502 185.316 349.937 189.63C357.677 194.096 360.392 203.993 356.027 211.808Z" fill="#F7EBE7"/>
<path d="M377.114 274.257L328.165 256.799L352.652 217.239" stroke="#EADDD8" stroke-width="0.7599" stroke-miterlimit="10" stroke-linecap="round" stroke-linejoin="round"/>
<path d="M410.255 259.362L422.308 227.541" stroke="#EADDD8" stroke-width="0.7599" stroke-miterlimit="10" stroke-linecap="round" stroke-linejoin="round"/>
<path d="M376.328 298.998C376.328 298.998 338.873 294.304 319.994 283.494" stroke="#EADDD8" stroke-width="0.7599" stroke-miterlimit="10" stroke-linecap="round" stroke-linejoin="round"/>
<defs>
<linearGradient id="paint0_linear" x1="90.8663" y1="490.143" x2="555.149" y2="335.251" gradientUnits="userSpaceOnUse">
<stop stop-color="#6CACE4"/>
<stop offset="0.0666667" stop-color="#6CACE4"/>
<stop offset="0.133333" stop-color="#6DADE4"/>
<stop offset="0.2" stop-color="#6FAEE5"/>
<stop offset="0.266667" stop-color="#72B0E5"/>
<stop offset="0.333333" stop-color="#75B3E6"/>
<stop offset="0.4" stop-color="#79B6E7"/>
<stop offset="0.466667" stop-color="#7DB9E8"/>
<stop offset="0.533333" stop-color="#82BDEA"/>
<stop offset="0.6" stop-color="#86C0EB"/>
<stop offset="0.666667" stop-color="#8AC3EC"/>
<stop offset="0.733333" stop-color="#8DC6ED"/>
<stop offset="0.8" stop-color="#90C8ED"/>
<stop offset="0.866667" stop-color="#92C9EE"/>
<stop offset="0.933333" stop-color="#93CAEE"/>
<stop offset="1" stop-color="#93CAEE"/>
</linearGradient>
</defs>
</svg>
