<svg width="0" height="0" class="hidden">
  <symbol xmlns="http://www.w3.org/2000/svg" viewBox="0 0 24 24" id="camera">
    <g clip-path="url(#clip0)">
      <path d="M22.9 8.955a1.987 1.987 0 00-2.092.184L18.975 10.5A5.007 5.007 0 0014 6h-.085L9.793 1.879A2.976 2.976 0 007.672 1H1a1 1 0 000 2h6.672c.265 0 .52.106.707.293L11.086 6H5a5.006 5.006 0 00-5 5v8a5.006 5.006 0 005 5h9a5.007 5.007 0 004.975-4.5l1.83 1.364a2 2 0 003.2-1.6v-8.521A1.988 1.988 0 0022.9 8.955zM17 19a3 3 0 01-3 3H5a3 3 0 01-3-3v-8a3 3 0 013-3h9a3 3 0 013 3v8zm5 .257l-3-2.236v-4.042l3-2.236v8.514z"></path>
    </g>
    <defs>
      <clipPath id="clip0">
        <path fill="#fff" d="M0 0h24v24H0z"></path>
      </clipPath>
    </defs>
  </symbol>
  <symbol xmlns="http://www.w3.org/2000/svg" viewBox="0 0 24 25" id="fingerprint">
    <path d="M6.465 22.285a1 1 0 01-.515-1.857C9.493 18.3 9.493 13.73 9.493 11a3 3 0 116 0 1 1 0 01-2 0 1 1 0 00-2 0c0 2.947 0 8.434-4.514 11.143a1.001 1.001 0 01-.514.142zm4.963 1.421c2.282-2.3 3.615-5.534 3.961-9.62A1.001 1.001 0 0014.48 13a.983.983 0 00-1.082.911c-.31 3.657-1.419 6.4-3.388 8.381a1 1 0 101.42 1.41v.004zm5.2-.186a17.803 17.803 0 001.508-3.18 1 1 0 00-1.88-.679 15.904 15.904 0 01-1.339 2.821.998.998 0 00.337 1.375 1 1 0 001.374-.337zm2.365-6.329a31.47 31.47 0 00.5-6.19A7 7 0 007.28 6.332a1 1 0 101.49 1.334A5 5 0 0117.492 11a29.695 29.695 0 01-.462 5.81 1 1 0 001.962.381zm-11.5-6.19c0-.28.023-.559.07-.834a1 1 0 10-1.97-.334 6.97 6.97 0 00-.1 1.167c0 4.645-1.346 7-4 7a1 1 0 100 2c3.87 0 6-3.2 6-9zm13.7 12.413A29.762 29.762 0 0023.493 11a10.865 10.865 0 00-1.1-4.794 1.002 1.002 0 00-1.8.875 8.9 8.9 0 01.9 3.92 27.912 27.912 0 01-2.119 11.585 1 1 0 001.82.828zM3.493 14v-3a9.01 9.01 0 019-9 8.911 8.911 0 015.4 1.8 1 1 0 101.2-1.6 10.9 10.9 0 00-6.6-2.2 11.013 11.013 0 00-11 11v3a1 1 0 002 0z"></path>
  </symbol>
  <symbol xmlns="http://www.w3.org/2000/svg" viewBox="0 0 24 24" id="edit">
    <g clip-path="url(#clip0)">
      <path d="M18.656.93L6.464 13.122A4.967 4.967 0 005 16.657V18a1 1 0 001 1h1.343a4.965 4.965 0 003.535-1.464L23.07 5.344a3.125 3.125 0 000-4.414 3.194 3.194 0 00-4.414 0zm3 3L9.464 16.122A3.02 3.02 0 017.343 17H7v-.343a3.02 3.02 0 01.878-2.121L20.07 2.344a1.148 1.148 0 011.586 0 1.123 1.123 0 010 1.586z"></path>
      <path d="M23 8.979a1 1 0 00-1 1V15h-4a3 3 0 00-3 3v4H5a3 3 0 01-3-3V5a3 3 0 013-3h9.042a1 1 0 100-2H5a5.006 5.006 0 00-5 5v14a5.006 5.006 0 005 5h11.343a4.967 4.967 0 003.536-1.464l2.656-2.658A4.969 4.969 0 0024 16.343V9.979a1 1 0 00-1-1zm-4.535 12.143a2.97 2.97 0 01-1.465.8V18a1 1 0 011-1h3.925a3.016 3.016 0 01-.8 1.464l-2.66 2.658z"></path>
    </g>
    <defs>
      <clipPath id="clip0">
        <path fill="#fff" d="M0 0h24v24H0z"></path>
      </clipPath>
    </defs>
  </symbol>
  <symbol xmlns="http://www.w3.org/2000/svg" viewBox="0 0 28 24" id="browser">
    <path d="M21.636 0H6.364A5.461 5.461 0 00.909 5.455v13.09A5.461 5.461 0 006.364 24h15.272a5.461 5.461 0 005.455-5.454V5.455A5.461 5.461 0 0021.636 0zM6.364 2.182h15.272a3.273 3.273 0 013.273 3.273v1.09H3.091v-1.09a3.273 3.273 0 013.273-3.273zm15.272 19.636H6.364a3.273 3.273 0 01-3.273-3.273V8.728h21.818v9.819a3.272 3.272 0 01-3.273 3.272zm0-8.727a1.091 1.091 0 01-1.09 1.09H7.455a1.09 1.09 0 110-2.181h13.09a1.09 1.09 0 011.091 1.09zm-4.363 4.364a1.09 1.09 0 01-1.091 1.09H7.455a1.09 1.09 0 010-2.181h8.727a1.091 1.091 0 011.09 1.09zM4.182 4.364a1.09 1.09 0 112.182 0 1.09 1.09 0 01-2.182 0zm3.273 0a1.09 1.09 0 112.181 0 1.09 1.09 0 01-2.181 0zm3.272 0a1.091 1.091 0 112.183 0 1.091 1.091 0 01-2.183 0z"></path>
  </symbol>
  <symbol xmlns="http://www.w3.org/2000/svg" viewBox="0 0 24 24" id="brush">
    <path d="M19 0H5a5.006 5.006 0 00-5 5v5a7.009 7.009 0 007 7h2v4a3 3 0 006 0v-4h2a7.009 7.009 0 007-7V5a5.006 5.006 0 00-5-5zM2 5a3 3 0 013-3h5v1a1 1 0 002 0V2h2v3a1 1 0 002 0V2h2v5a1 1 0 002 0V2.184A3 3 0 0122 5v5H2V5zm15 10h-3a1 1 0 00-1 1v5a1 1 0 01-2 0v-5a1 1 0 00-1-1H7a5 5 0 01-4.576-3h19.152A5 5 0 0117 15z"></path>
  </symbol>
  <symbol xmlns="http://www.w3.org/2000/svg" viewBox="0 0 24 24" id="school">
    <g clip-path="url(#clip0)">
      <path d="M19 6h-4.679A3.95 3.95 0 0013 5.388V5l3.53-1.652a1 1 0 000-1.7l-3.2-1.5A1.637 1.637 0 0011 1.636v3.752c-.474.12-.922.328-1.32.612H5a5.006 5.006 0 00-5 5v10a3 3 0 003 3h18a3 3 0 003-3V11a5.006 5.006 0 00-5-5zm2.816 4h-2.159a3.017 3.017 0 01-2.121-.879L16.414 8H19a3 3 0 012.816 2zM5 8h2.586L6.464 9.121A3.017 3.017 0 014.343 10H2.184A3 3 0 015 8zm8 14h-2v-3a1 1 0 012 0v3zm8 0h-6v-3a3 3 0 00-6 0v3H3a1 1 0 01-1-1v-9h2.343a4.968 4.968 0 003.535-1.465l2.708-2.707a2 2 0 012.828 0l2.708 2.707A4.967 4.967 0 0019.657 12H22v9a1 1 0 01-1 1zM7 15a1 1 0 01-1 1H5a1 1 0 010-2h1a1 1 0 011 1zm0 4a1 1 0 01-1 1H5a1 1 0 010-2h1a1 1 0 011 1zm13-4a1 1 0 01-1 1h-1a1 1 0 010-2h1a1 1 0 011 1zm0 4a1 1 0 01-1 1h-1a1 1 0 010-2h1a1 1 0 011 1zm-6-7a2 2 0 11-4 0 2 2 0 014 0z" ></path>
    </g>
    <defs>
      <clipPath id="clip0">
        <path fill="#fff" d="M0 0h24v24H0z"></path>
      </clipPath>
    </defs>
  </symbol>
</svg>