<svg width="24" height="16" viewBox="0 0 24 16" fill="none" xmlns="http://www.w3.org/2000/svg">
<path d="M23 7H1C0.447715 7 0 7.44772 0 8C0 8.55228 0.447715 9 1 9H23C23.5523 9 24 8.55228 24 8C24 7.44772 23.5523 7 23 7Z" fill="#111238"/>
<path d="M23 0H1C0.447715 0 0 0.447715 0 1C0 1.55228 0.447715 2 1 2H23C23.5523 2 24 1.55228 24 1C24 0.447715 23.5523 0 23 0Z" fill="#111238"/>
<path d="M23 14H1C0.447715 14 0 14.4477 0 15C0 15.5523 0.447715 16 1 16H23C23.5523 16 24 15.5523 24 15C24 14.4477 23.5523 14 23 14Z" fill="#111238"/>
</svg>
