<svg width="15" height="15" viewBox="0 0 15 15" fill="none" xmlns="http://www.w3.org/2000/svg">
<path d="M14.8247 13.9417L11.0971 10.2141C12.1129 8.97176 12.6124 7.38649 12.4921 5.78623C12.3719 4.18596 11.6412 2.69312 10.4512 1.6165C9.26112 0.539881 7.7028 -0.0381557 6.09852 0.00195626C4.49424 0.0420682 2.96676 0.697259 1.83201 1.83201C0.697259 2.96676 0.0420682 4.49424 0.00195626 6.09852C-0.0381557 7.7028 0.539881 9.26112 1.6165 10.4512C2.69312 11.6412 4.18596 12.3719 5.78623 12.4921C7.38649 12.6124 8.97176 12.1129 10.2141 11.0971L13.9417 14.8247C14.0595 14.9385 14.2172 15.0014 14.3809 15C14.5447 14.9986 14.7013 14.9329 14.8171 14.8171C14.9329 14.7013 14.9986 14.5447 15 14.3809C15.0014 14.2172 14.9385 14.0595 14.8247 13.9417ZM6.26486 11.2608C5.27676 11.2608 4.31086 10.9677 3.48929 10.4188C2.66772 9.86984 2.02738 9.08958 1.64925 8.1767C1.27112 7.26382 1.17219 6.25932 1.36496 5.29021C1.55772 4.3211 2.03354 3.43091 2.73223 2.73223C3.43091 2.03354 4.3211 1.55772 5.29021 1.36496C6.25932 1.17219 7.26382 1.27112 8.1767 1.64925C9.08958 2.02738 9.86984 2.66772 10.4188 3.48929C10.9677 4.31086 11.2608 5.27676 11.2608 6.26486C11.2593 7.58939 10.7324 8.85926 9.79585 9.79585C8.85926 10.7324 7.58939 11.2593 6.26486 11.2608Z" fill="white"/>
</svg>
